<svg xmlns="http://www.w3.org/2000/svg" width="500" height="500" viewBox="0 0 500 500">
  <defs>
    <style>
      .cls-1 {
        fill: #fc0;

      }

      .cls-2,
      .cls-3 {
        fill: #037ad6;
      }

      .cls-3 {
        fill-rule: evenodd;
      }
    </style>
  </defs>
  <path class="cls-1"
    d="M195,66H452a38,38,0,0,1,38,38V251A185,185,0,0,1,305,436H195A185,185,0,0,1,10,251v0A185,185,0,0,1,195,66Z" />
  <path id="bCover" class="cls-2"
    d="M198,318H373.545A8.455,8.455,0,0,1,382,326.455v25.364A28.182,28.182,0,0,1,353.818,380H198a30,30,0,0,1-30-30v-2a30,30,0,0,1,30-30Z" />
  <path id="mCover" class="cls-3"
    d="M198,220H328.152a8.454,8.454,0,0,1,8.454,8.455v25.363A28.181,28.181,0,0,1,308.424,282H198a30,30,0,0,1-30-30v-2A30,30,0,0,1,198,220Z" />
  <path id="tCover" class="cls-2"
    d="M198,121H373.545A8.455,8.455,0,0,1,382,129.455v25.364A28.182,28.182,0,0,1,353.818,183H198a30,30,0,0,1-30-30v-2a30,30,0,0,1,30-30Z" />
  <path id="bottom" class="cls-2"
    d="M148.061,318H292a0,0,0,0,1,0,0v62a0,0,0,0,1,0,0H149.939A31.939,31.939,0,0,1,118,348.061v0A30.061,30.061,0,0,1,148.061,318Z" />
  <path id="middle" class="cls-2"
    d="M148.061,220H255.094a0,0,0,0,1,0,0v62a0,0,0,0,1,0,0H149.939A31.939,31.939,0,0,1,118,250.061v0A30.061,30.061,0,0,1,148.061,220Z" />
  <path id="top" class="cls-2"
    d="M148.061,121H292a0,0,0,0,1,0,0v62a0,0,0,0,1,0,0H149.939A31.939,31.939,0,0,1,118,151.061v0A30.061,30.061,0,0,1,148.061,121Z" />
</svg>