<svg xmlns="http://www.w3.org/2000/svg" width="512" height="512" viewBox="0 0 512 512">
  <defs>
    <style>
      .cls-1 {
        fill: #fc0;
      }

      .cls-1, .cls-2 {
        fill-rule: evenodd;
      }

      .cls-2 {
        fill: #037ad6;
      }
    </style>
  </defs>
  <path class="cls-1" d="M0.189-.167h512v512h-512v-512Z"/>
  <path id="bCover" class="cls-2" d="M189.145,335.725H403.461a8.454,8.454,0,0,1,8.455,8.454v36.6a28.182,28.182,0,0,1-28.182,28.181H189.145a30,30,0,0,1-30-30V365.725A30,30,0,0,1,189.145,335.725Z"/>
  <path id="mCover" class="cls-2" d="M189.145,219.97H349.829a8.454,8.454,0,0,1,8.454,8.455v36.6A28.182,28.182,0,0,1,330.1,293.2H189.145a30,30,0,0,1-30-30V249.97A30,30,0,0,1,189.145,219.97Z"/>
  <path id="tCover" class="cls-2" d="M189.145,103.034H403.461a8.455,8.455,0,0,1,8.455,8.455v36.6a28.183,28.183,0,0,1-28.182,28.182H189.145a30,30,0,0,1-30-30V133.034A30,30,0,0,1,189.145,103.034Z"/>
  <path id="bottom" class="cls-2" d="M130.148,335.725H305.611v73.232H132.026a31.939,31.939,0,0,1-31.939-31.939V365.785A30.06,30.06,0,0,1,130.148,335.725Z"/>
  <path id="middle" class="cls-2" d="M130.148,219.97h131.87V293.2H132.026a31.94,31.94,0,0,1-31.939-31.94V250.031A30.061,30.061,0,0,1,130.148,219.97Z"/>
  <path id="top" class="cls-2" d="M130.148,103.034H305.611v73.233H132.026a31.94,31.94,0,0,1-31.939-31.94V133.1A30.061,30.061,0,0,1,130.148,103.034Z"/>
</svg>
